<svg width="28" height="28" viewBox="0 0 28 28" fill="none" xmlns="http://www.w3.org/2000/svg">
<path d="M19.3982 2.77002H7.98226C4.82983 2.77002 2.27429 5.32556 2.27429 8.47798V19.8939C2.27429 23.0463 4.82983 25.6019 7.98226 25.6019H19.3982C22.5506 25.6019 25.1061 23.0463 25.1061 19.8939V8.47798C25.1061 5.32556 22.5506 2.77002 19.3982 2.77002Z" stroke="black" stroke-width="2.28319" stroke-linecap="round" stroke-linejoin="round"/>
<path d="M18.2566 13.4666C18.3975 14.4167 18.2352 15.387 17.7928 16.2396C17.3504 17.0921 16.6505 17.7835 15.7926 18.2153C14.9347 18.6471 13.9624 18.7974 13.0141 18.6448C12.0659 18.4922 11.1898 18.0445 10.5107 17.3654C9.83152 16.6862 9.38381 15.8102 9.23122 14.8619C9.07863 13.9136 9.22893 12.9414 9.66075 12.0834C10.0926 11.2255 10.7839 10.5256 11.6365 10.0832C12.489 9.64086 13.4593 9.47858 14.4094 9.61947C15.3785 9.76317 16.2757 10.2148 16.9685 10.9075C17.6613 11.6003 18.1129 12.4975 18.2566 13.4666Z" stroke="black" stroke-width="2.28319" stroke-linecap="round" stroke-linejoin="round"/>
<path d="M19.969 7.90698H19.98" stroke="black" stroke-width="2.28319" stroke-linecap="round" stroke-linejoin="round"/>
</svg>
