<svg width="26" height="26" viewBox="0 0 26 26" fill="none" xmlns="http://www.w3.org/2000/svg">
<path d="M24.1062 18.8735V22.2983C24.1075 22.6162 24.0424 22.9309 23.915 23.2222C23.7877 23.5135 23.6008 23.775 23.3666 23.99C23.1323 24.2049 22.8557 24.3685 22.5545 24.4704C22.2533 24.5722 21.9342 24.6101 21.6176 24.5815C18.1047 24.1998 14.7303 22.9994 11.7656 21.0768C9.00733 19.324 6.66878 16.9855 4.91606 14.2272C2.98674 11.249 1.78609 7.85826 1.41137 4.3296C1.38284 4.01392 1.42036 3.69575 1.52153 3.39535C1.6227 3.09496 1.78532 2.81892 1.99902 2.58482C2.21272 2.35071 2.47282 2.16367 2.76277 2.0356C3.05272 1.90753 3.36616 1.84123 3.68314 1.84093H7.10791C7.66194 1.83548 8.19904 2.03167 8.61911 2.39293C9.03918 2.75419 9.31356 3.25587 9.3911 3.80447C9.53565 4.90048 9.80373 5.97661 10.1902 7.01235C10.3438 7.42095 10.3771 7.86502 10.286 8.29194C10.195 8.71885 9.98343 9.11072 9.6765 9.42111L8.22668 10.8709C9.8518 13.729 12.2182 16.0954 15.0762 17.7205L16.5261 16.2707C16.8364 15.9637 17.2283 15.7522 17.6552 15.6612C18.0821 15.5701 18.5262 15.6034 18.9348 15.7569C19.9706 16.1434 21.0467 16.4115 22.1427 16.5561C22.6972 16.6343 23.2037 16.9136 23.5657 17.3409C23.9278 17.7682 24.1201 18.3136 24.1062 18.8735Z" stroke="black" stroke-width="2.28319" stroke-linecap="round" stroke-linejoin="round"/>
</svg>
